# xmcd CD database file
#
# Track frame offsets:
#	150
#	9782
#	24580
#	45432
#	62135
#	82086
#	99819
#	124317
#	143668
#	162634
#	192773
#
# Disc length: 2790 seconds
#
# Revision: 7
# Processed by: cddbd v1.5.1PL0 Copyright (c) Steve Scherf et al.
# Submitted via: CDex 1.51
#
DISCID=860ae40b
DTITLE=the pillows - SYNCHRONIZED ROCKERS Tribute to the pillows
DYEAR=2004
DGENRE=Rock
TTITLE0=RUNNERS HIGH/ストレイテナー
TTITLE1=Funny Bunny/ELLEGARDEN
TTITLE2=巴里の女性マリー/The ピーズ with クハラ カズユキ
TTITLE3=Vain Dog (in rain drop)noodles
TTITLE4=この世の果てまで/YO-KING
TTITLE5=カーニバル/佐藤竹善
TTITLE6=LITTLE BUSTERS/GOING UNDER GROUND
TTITLE7=Our love and peace/SALON MUSIC
TTITLE8=ハイブリッドレインボウ/BUMP OF CHICKEN
TTITLE9=ストレンジカメレオン/Mr.Children
TTITLE10=Sad Sad Kiddie/YUTA.TOSHI.CHIHO and JIRO'S SESSION (from GLAY JIRO)
EXTD=YEAR: 2004
EXTT0=
EXTT1=
EXTT2=
EXTT3=
EXTT4=
EXTT5=
EXTT6=
EXTT7=
EXTT8=
EXTT9=
EXTT10=
PLAYORDER=
